/* XPM */
xpm_string_t zero_xpm[] = {
"17 32 78 1",
" 	c #FFFFFF",
".	c #000000",
"+	c #0C0C0C",
"@	c #787878",
"#	c #CCCCCC",
"$	c #EFEFEF",
"%	c #F3F3F3",
"&	c #CECECE",
"*	c #7A7A7A",
"=	c #2B2B2B",
"-	c #DFDFDF",
";	c #FFFFFE",
">	c #272727",
",	c #171717",
"'	c #E7E7E7",
")	c #F0F0F0",
"!	c #E3E3E3",
"~	c #101010",
"{	c #A1A1A1",
"]	c #F9F9F9",
"^	c #4D4D4D",
"/	c #010101",
"(	c #050505",
"_	c #6E6E6E",
":	c #909090",
"<	c #FBFBFB",
"[	c #6C6C6C",
"}	c #959595",
"|	c #0B0B0B",
"1	c #686868",
"2	c #F6F6F6",
"3	c #0D0D0D",
"4	c #505050",
"5	c #9E9E9E",
"6	c #B5B5B5",
"7	c #DBDBDB",
"8	c #848484",
"9	c #C3C3C3",
"0	c #989898",
"a	c #BBBBBB",
"b	c #A4A4A4",
"c	c #D3D3D3",
"d	c #818181",
"e	c #A2A2A2",
"f	c #D6D6D6",
"g	c #858585",
"h	c #9D9D9D",
"i	c #B1B1B1",
"j	c #C7C7C7",
"k	c #9C9C9C",
"l	c #A7A7A7",
"m	c #D1D1D1",
"n	c #7C7C7C",
"o	c #727272",
"p	c #FAFAFA",
"q	c #121212",
"r	c #1E1E1E",
"s	c #FEFEFE",
"t	c #474747",
"u	c #212121",
"v	c #757575",
"w	c #838383",
"x	c #EBEBEB",
"y	c #060606",
"z	c #B2B2B2",
"A	c #545454",
"B	c #585858",
"C	c #FDFDFD",
"D	c #808080",
"E	c #222222",
"F	c #E9E9E9",
"G	c #D5D5D5",
"H	c #090909",
"I	c #3A3A3A",
"J	c #1B1B1B",
"K	c #141414",
"L	c #868686",
"M	c #F5F5F5",
".................",
".................",
".................",
".................",
".................",
".................",
".................",
"....+@#$%&*+.....",
"...=-;;;;;;->....",
"..,';;;');;;!~...",
"..{;;]^/(_;;;:...",
".,<;;[....};;%|..",
".1;;23....=;;;4..",
".5;;6......7;;8..",
".9;;0......a;;b..",
".c;;d......e;;6..",
".f;;g......h;;i..",
".j;;k......6;;e..",
".l;;a......m;;n..",
".o;;pq....rs;;t..",
".us;;v....w;;xy..",
"..z;;<A//BC;;D...",
"..E);;;F';;;GH...",
"...Ix;;;;;;cJ....",
"....KLfM$j_y.....",
".................",
".................",
".................",
".................",
".................",
".................",
"................."};
