/* XPM */
xpm_string_t one_xpm[] = {
"13 32 27 1",
" 	c #FFFFFF",
".	c #000000",
"+	c #1B1B1B",
"@	c #B0B0B0",
"#	c #FFFFFE",
"$	c #EBEBEB",
"%	c #010101",
"&	c #686868",
"*	c #F1F1F1",
"=	c #282828",
"-	c #C3C3C3",
";	c #2F2F2F",
">	c #F8F8F8",
",	c #020202",
"'	c #D2D2D2",
")	c #CCCCCC",
"!	c #868686",
"~	c #464646",
"{	c #656565",
"]	c #4F4F4F",
"^	c #848484",
"/	c #BBBBBB",
"(	c #D1D1D1",
"_	c #FAFAFA",
":	c #313131",
"<	c #B3B3B3",
"[	c #434343",
".............",
".............",
".............",
".............",
".............",
".............",
".............",
"....+@#$.....",
"..%&*##$.....",
".=-####$.....",
";>#####$.....",
",'#)!##$.....",
".~{,]##$.....",
"....]##$.....",
"....]##$.....",
"....]##$.....",
"....]##$.....",
"....]##$.....",
"....]##$.....",
"....]##$.....",
"....]##$.....",
"....]##$.....",
".^//(##_///:.",
".<#########[.",
".<#########[.",
".............",
".............",
".............",
".............",
".............",
".............",
"............."};
