/* XPM */
xpm_string_t two_xpm[] = {
"15 32 57 1",
" 	c #FFFFFF",
".	c #000000",
"+	c #232323",
"@	c #888888",
"#	c #CCCCCC",
"$	c #EDEDED",
"%	c #F5F5F5",
"&	c #D0D0D0",
"*	c #A6A6A6",
"=	c #323232",
"-	c #070707",
";	c #909090",
">	c #FCFCFC",
",	c #FFFFFE",
"'	c #FEFEFE",
")	c #8B8B8B",
"!	c #282828",
"~	c #E2E2E2",
"{	c #565656",
"]	c #C9C9C9",
"^	c #D7D7D7",
"/	c #525252",
"(	c #101010",
"_	c #010101",
":	c #5A5A5A",
"<	c #F7F7F7",
"[	c #CFCFCF",
"}	c #040404",
"|	c #818181",
"1	c #FAFAFA",
"2	c #060606",
"3	c #434343",
"4	c #151515",
"5	c #636363",
"6	c #ECECEC",
"7	c #A7A7A7",
"8	c #B6B6B6",
"9	c #393939",
"0	c #FDFDFD",
"a	c #404040",
"b	c #D4D4D4",
"c	c #C0C0C0",
"d	c #A9A9A9",
"e	c #EEEEEE",
"f	c #212121",
"g	c #8F8F8F",
"h	c #494949",
"i	c #7A7A7A",
"j	c #737373",
"k	c #7E7E7E",
"l	c #747474",
"m	c #878787",
"n	c #717171",
"o	c #CBCBCB",
"p	c #929292",
"q	c #DBDBDB",
"r	c #B7B7B7",
"...............",
"...............",
"...............",
"...............",
"...............",
"...............",
"...............",
"..+@#$%&*=.....",
"-;>,,,,,,')....",
"!,,,,~%,,,,{...",
".]^/(._:<,,[...",
".!}.....|,,12..",
"........3,,,4..",
"........5,,6...",
"........7,,8...",
".......90,,a...",
"......-b,,c....",
"....._d,,ef....",
".....g,,0h.....",
"....i,,,j......",
"...k,,,l.......",
"..m,,,n........",
".),,,<oooooop..",
".q,,,,,,,,,,r..",
".q,,,,,,,,,,r..",
"...............",
"...............",
"...............",
"...............",
"...............",
"...............",
"..............."};
