/* XPM */
xpm_string_t three_xpm[] = {
"15 32 75 1",
" 	c None",
".	c #000000",
"+	c #232323",
"@	c #868686",
"#	c #B9B9B9",
"$	c #DADADA",
"%	c #F7F7F7",
"&	c #DFDFDF",
"*	c #BCBCBC",
"=	c #686868",
"-	c #060606",
";	c #B4B4B4",
">	c #FEFEFE",
",	c #FFFFFE",
"'	c #DEDEDE",
")	c #1A1A1A",
"!	c #F8F8F8",
"~	c #D7D7D7",
"{	c #FBFBFB",
"]	c #C8C8C8",
"^	c #5D5D5D",
"/	c #919191",
"(	c #363636",
"_	c #020202",
":	c #B6B6B6",
"<	c #212121",
"[	c #1B1B1B",
"}	c #4F4F4F",
"|	c #202020",
"1	c #333333",
"2	c #111111",
"3	c #B8B8B8",
"4	c #CFCFCF",
"5	c #010101",
"6	c #7C7C7C",
"7	c #989898",
"8	c #B5B5B5",
"9	c #E3E3E3",
"0	c #E1E1E1",
"a	c #404040",
"b	c #A6A6A6",
"c	c #080808",
"d	c #0E0E0E",
"e	c #282828",
"f	c #626262",
"g	c #C7C7C7",
"h	c #909090",
"i	c #A2A2A2",
"j	c #252525",
"k	c #3C3C3C",
"l	c #3D3D3D",
"m	c #898989",
"n	c #888888",
"o	c #303030",
"p	c #272727",
"q	c #C6C6C6",
"r	c #F3F3F3",
"s	c #0C0C0C",
"t	c #EAEAEA",
"u	c #F9F9F9",
"v	c #DDDDDD",
"w	c #CACACA",
"x	c #E0E0E0",
"y	c #757575",
"z	c #F2F2F2",
"A	c #787878",
"B	c #0A0A0A",
"C	c #5A5A5A",
"D	c #ACACAC",
"E	c #CECECE",
"F	c #EBEBEB",
"G	c #F5F5F5",
"H	c #D8D8D8",
"I	c #777777",
"J	c #101010",
"...............",
"...............",
"...............",
"...............",
"...............",
"...............",
"...............",
"..+@#$%&*=-....",
".;>,,,,,,,')...",
".#,,!~${,,,]...",
".^/(_..):,,,<..",
"........[,,,}..",
"........|,,,1..",
".......23,,45..",
"....678%,,$+...",
"....9,,,,0a....",
"....9,,,,,,bc..",
".....defg,,,h..",
"........_i,,{2.",
".........j,,,k.",
".........e,,,l.",
".mno5...pq,,rs.",
"_t,,uvwx,,,,y..",
"<z,,,,,,,,rA...",
".BCDEFGH3IJ....",
"...............",
"...............",
"...............",
"...............",
"...............",
"...............",
"..............."};
