/* XPM */
xpm_string_t four_xpm[] = {
"17 32 42 1",
" 	c #FFFFFF",
".	c #000000",
"+	c #8A8A8A",
"@	c #FFFFFE",
"#	c #CFCFCF",
"$	c #383838",
"%	c #FCFCFC",
"&	c #090909",
"*	c #D8D8D8",
"=	c #8D8D8D",
"-	c #FEFEFE",
";	c #3C3C3C",
">	c #FDFDFD",
",	c #999999",
"'	c #0A0A0A",
")	c #DBDBDB",
"!	c #A9A9A9",
"~	c #474747",
"{	c #919191",
"]	c #ECECEC",
"^	c #161616",
"/	c #3F3F3F",
"(	c #5A5A5A",
"_	c #0B0B0B",
":	c #DDDDDD",
"<	c #B3B3B3",
"[	c #959595",
"}	c #F0F0F0",
"|	c #1B1B1B",
"1	c #424242",
"2	c #636363",
"3	c #0D0D0D",
"4	c #E0E0E0",
"5	c #B0B0B0",
"6	c #AFAFAF",
"7	c #C6C6C6",
"8	c #AEAEAE",
"9	c #ADADAD",
"0	c #9C9C9C",
"a	c #727272",
"b	c #E7E7E7",
"c	c #7B7B7B",
".................",
".................",
".................",
".................",
".................",
".................",
".................",
"........+@@#.....",
".......$%@@#.....",
"......&*@@@#.....",
"......=@-@@#.....",
".....;>@,@@#.....",
"....')@!~@@#.....",
"....{@]^~@@#.....",
".../-@(.~@@#.....",
".._:@<..~@@#.....",
"..[@}|..~@@#.....",
".1-@2...~@@#.....",
"34@%56667@@}890..",
"a@@@@@@@@@@@@@b..",
"c@@@@@@@@@@@@@b..",
"........~@@#.....",
"........~@@#.....",
"........~@@#.....",
"........~@@#.....",
".................",
".................",
".................",
".................",
".................",
".................",
"................."};
