/* XPM */
xpm_string_t five_xpm[] = {
"15 32 64 1",
" 	c #FFFFFF",
".	c #000000",
"+	c #C1C1C1",
"@	c #FFFFFE",
"#	c #4B4B4B",
"$	c #CCCCCC",
"%	c #D7D7D7",
"&	c #E0E0E0",
"*	c #CFCFCF",
"=	c #3D3D3D",
"-	c #E2E2E2",
";	c #505050",
">	c #EDEDED",
",	c #454545",
"'	c #F7F7F7",
")	c #3B3B3B",
"!	c #020202",
"~	c #313131",
"{	c #0D0D0D",
"]	c #E7E7E7",
"^	c #E6E6E6",
"/	c #C3C3C3",
"(	c #949494",
"_	c #212121",
":	c #181818",
"<	c #FBFBFB",
"[	c #7F7F7F",
"}	c #222222",
"|	c #EEEEEE",
"1	c #D3D3D3",
"2	c #B8B8B8",
"3	c #A7A7A7",
"4	c #BEBEBE",
"5	c #EAEAEA",
"6	c #535353",
"7	c #050505",
"8	c #626262",
"9	c #FAFAFA",
"0	c #D0D0D0",
"a	c #7C7C7C",
"b	c #080808",
"c	c #3F3F3F",
"d	c #1E1E1E",
"e	c #6C6C6C",
"f	c #F8F8F8",
"g	c #060606",
"h	c #464646",
"i	c #8F8F8F",
"j	c #363636",
"k	c #F2F2F2",
"l	c #ADADAD",
"m	c #D5D5D5",
"n	c #F3F3F3",
"o	c #272727",
"p	c #040404",
"q	c #E3E3E3",
"r	c #D4D4D4",
"s	c #3A3A3A",
"t	c #525252",
"u	c #A9A9A9",
"v	c #CDCDCD",
"w	c #EBEBEB",
"x	c #D1D1D1",
"y	c #5D5D5D",
"...............",
"...............",
"...............",
"...............",
"...............",
"...............",
"...............",
"..+@@@@@@@@@#..",
"..$@@@@@@@@@#..",
"..%@@&******=..",
"..-@@;.........",
"..>@@,.........",
"..'@@).........",
".!@@@~.........",
".{@@@]'^/(_....",
".:@@@@@@@@<[...",
".}|12345@@@@6..",
".......789@@0..",
".........a@@<b.",
".........c@@@d.",
".........e@@fg.",
".hij!..!6k@@l..",
".l@@<&mk@@@no..",
"pq@@@@@@@@rs...",
".7tuvwnxly!....",
"...............",
"...............",
"...............",
"...............",
"...............",
"...............",
"..............."};
