/* XPM */
xpm_string_t six_xpm[] = {
"16 32 84 1",
" 	c None",
".	c #000000",
"+	c #343434",
"@	c #939393",
"#	c #D5D5D5",
"$	c #EFEFEF",
"%	c #F5F5F5",
"&	c #D8D8D8",
"*	c #B6B6B6",
"=	c #5F5F5F",
"-	c #0A0A0A",
";	c #060606",
">	c #9C9C9C",
",	c #FEFEFE",
"'	c #FFFFFE",
")	c #747474",
"!	c #010101",
"~	c #B3B3B3",
"{	c #FDFDFD",
"]	c #D4D4D4",
"^	c #BCBCBC",
"/	c #DBDBDB",
"(	c #202020",
"_	c #6B6B6B",
":	c #AAAAAA",
"<	c #0E0E0E",
"[	c #1A1A1A",
"}	c #606060",
"|	c #040404",
"1	c #E6E6E6",
"2	c #4B4B4B",
"3	c #2B2B2B",
"4	c #878787",
"5	c #C6C6C6",
"6	c #A0A0A0",
"7	c #101010",
"8	c #858585",
"9	c #D7D7D7",
"0	c #F6F6F6",
"a	c #DCDCDC",
"b	c #ACACAC",
"c	c #323232",
"d	c #CACACA",
"e	c #A7A7A7",
"f	c #E4E4E4",
"g	c #FBFBFB",
"h	c #686868",
"i	c #D6D6D6",
"j	c #EDEDED",
"k	c #C4C4C4",
"l	c #F7F7F7",
"m	c #232323",
"n	c #C1C1C1",
"o	c #7C7C7C",
"p	c #020202",
"q	c #3A3A3A",
"r	c #8D8D8D",
"s	c #A1A1A1",
"t	c #A9A9A9",
"u	c #8B8B8B",
"v	c #B9B9B9",
"w	c #818181",
"x	c #5B5B5B",
"y	c #CCCCCC",
"z	c #4E4E4E",
"A	c #404040",
"B	c #9E9E9E",
"C	c #050505",
"D	c #DDDDDD",
"E	c #EBEBEB",
"F	c #636363",
"G	c #565656",
"H	c #D0D0D0",
"I	c #FAFAFA",
"J	c #C5C5C5",
"K	c #030303",
"L	c #757575",
"M	c #CBCBCB",
"N	c #212121",
"O	c #E2E2E2",
"P	c #F8F8F8",
"Q	c #DEDEDE",
"R	c #B4B4B4",
"S	c #676767",
"................",
"................",
"................",
"................",
"................",
"................",
"................",
".....+@#$%&*=-..",
"...;>,''''''')..",
"..!~'''{]^/{'(..",
".._''':<...[}...",
".|1'':..........",
".2'',3..........",
".4''5...........",
".*''67890abc....",
".d''ef'''''gh...",
".i''''j~k{''lm..",
".n'''op..q0''r..",
".s''t.....u''v..",
".w''i.....x''y..",
".z'''A....o''B..",
".C1''D3..3E''F..",
"..G'''gHyI''JK..",
"...L{''''''MN...",
"....csOPQRSp....",
"................",
"................",
"................",
"................",
"................",
"................",
"................"};
