/* XPM */
xpm_string_t seven_xpm[] = {
"14 32 48 1",
" 	c #FFFFFF",
".	c #000000",
"+	c #737373",
"@	c #FFFFFE",
"#	c #CBCBCB",
"$	c #CACACA",
"%	c #5E5E5E",
"&	c #CFCFCF",
"*	c #D1D1D1",
"=	c #7F7F7F",
"-	c #494949",
";	c #F9F9F9",
">	c #171717",
",	c #BABABA",
"'	c #A0A0A0",
")	c #2B2B2B",
"!	c #313131",
"~	c #9A9A9A",
"{	c #C0C0C0",
"]	c #141414",
"^	c #F6F6F6",
"/	c #505050",
"(	c #7B7B7B",
"_	c #DFDFDF",
":	c #020202",
"<	c #050505",
"[	c #E6E6E6",
"}	c #717171",
"|	c #5C5C5C",
"1	c #F3F3F3",
"2	c #0F0F0F",
"3	c #CCCCCC",
"4	c #919191",
"5	c #3D3D3D",
"6	c #FDFDFD",
"7	c #242424",
"8	c #AEAEAE",
"9	c #B2B2B2",
"0	c #212121",
"a	c #424242",
"b	c #8F8F8F",
"c	c #D2D2D2",
"d	c #0D0D0D",
"e	c #F1F1F1",
"f	c #626262",
"g	c #6F6F6F",
"h	c #EBEBEB",
"i	c #080808",
"..............",
"..............",
"..............",
"..............",
"..............",
"..............",
"..............",
"+@@@@@@@@@@@#.",
"+@@@@@@@@@@@$.",
"%&&&&&&&*@@@=.",
"........-@@;>.",
"........,@@'..",
".......)@@@!..",
".......~@@{...",
"......]^@@/...",
"......(@@_:...",
".....<[@@}....",
".....|@@12....",
".....3@@4.....",
"....5@@67.....",
"....8@@9......",
"...06@@a......",
"...b@@c.......",
"..de@@f.......",
"..g@@hi.......",
"..............",
"..............",
"..............",
"..............",
"..............",
"..............",
".............."};
