/* XPM */
xpm_string_t eight_xpm[] = {
"16 32 93 2",
"  	c #FFFFFF",
". 	c #000000",
"+ 	c #4F4F4F",
"@ 	c #B0B0B0",
"# 	c #D6D6D6",
"$ 	c #F6F6F6",
"% 	c #E0E0E0",
"& 	c #BEBEBE",
"* 	c #696969",
"= 	c #070707",
"- 	c #0C0C0C",
"; 	c #C3C3C3",
"> 	c #FFFFFE",
", 	c #E1E1E1",
"' 	c #1E1E1E",
") 	c #ABABAB",
"! 	c #FDFDFD",
"~ 	c #C1C1C1",
"{ 	c #AAAAAA",
"] 	c #D4D4D4",
"^ 	c #D0D0D0",
"/ 	c #212121",
"( 	c #F9F9F9",
"_ 	c #3B3B3B",
": 	c #252525",
"< 	c #575757",
"[ 	c #C7C7C7",
"} 	c #DFDFDF",
"| 	c #4A4A4A",
"1 	c #5C5C5C",
"2 	c #EAEAEA",
"3 	c #090909",
"4 	c #020202",
"5 	c #E8E8E8",
"6 	c #FEFEFE",
"7 	c #202020",
"8 	c #272727",
"9 	c #2B2B2B",
"0 	c #7F7F7F",
"a 	c #A6A6A6",
"b 	c #9C9C9C",
"c 	c #AEAEAE",
"d 	c #C8C8C8",
"e 	c #BABABA",
"f 	c #0A0A0A",
"g 	c #040404",
"h 	c #969696",
"i 	c #BCBCBC",
"j 	c #080808",
"k 	c #111111",
"l 	c #909090",
"m 	c #FAFAFA",
"n 	c #373737",
"o 	c #121212",
"p 	c #D2D2D2",
"q 	c #959595",
"r 	c #2E2E2E",
"s 	c #727272",
"t 	c #DBDBDB",
"u 	c #F8F8F8",
"v 	c #2A2A2A",
"w 	c #8E8E8E",
"x 	c #010101",
"y 	c #525252",
"z 	c #F2F2F2",
"A 	c #AFAFAF",
"B 	c #DDDDDD",
"C 	c #464646",
"D 	c #6A6A6A",
"E 	c #E5E5E5",
"F 	c #686868",
"G 	c #444444",
"H 	c #B1B1B1",
"I 	c #ECECEC",
"J 	c #393939",
"K 	c #0D0D0D",
"L 	c #A3A3A3",
"M 	c #454545",
"N 	c #FBFBFB",
"O 	c #D1D1D1",
"P 	c #B8B8B8",
"Q 	c #F0F0F0",
"R 	c #F4F4F4",
"S 	c #303030",
"T 	c #5F5F5F",
"U 	c #F5F5F5",
"V 	c #4D4D4D",
"W 	c #141414",
"X 	c #828282",
"Y 	c #C0C0C0",
"Z 	c #F7F7F7",
"` 	c #DCDCDC",
" .	c #767676",
". . . . . . . . . . . . . . . . ",
". . . . . . . . . . . . . . . . ",
". . . . . . . . . . . . . . . . ",
". . . . . . . . . . . . . . . . ",
". . . . . . . . . . . . . . . . ",
". . . . . . . . . . . . . . . . ",
". . . . . . . . . . . . . . . . ",
". . . . + @ # $ % & * = . . . . ",
". . - ; > > > > > > > , ' . . . ",
". . ) > > ! ~ { ] > > > ^ . . . ",
". / > > ( _ . . . * > > > : . . ",
". < > > [ . . . . . } > > | . . ",
". 1 > > 2 3 . . . 4 5 > 6 7 . . ",
". 8 6 > > & 9 . . 0 > > a . . . ",
". . b > > > 6 c d > > e f . . . ",
". . g h 6 > > > > > i j . . . . ",
". . k l m > > > > > > % n . . . ",
". o p > > q r s t > > > u v . . ",
". w > > h . . . x y z > > A . . ",
". B > > C . . . . . D > > E . . ",
". 2 > > F . . . . . G > > B . . ",
". H > > I J . . . K e > > L . . ",
". M N > > > O c P Q > > R S . . ",
". . T U > > > > > > > I V . . . ",
". . . W X Y , Z ` e  .- . . . . ",
". . . . . . . . . . . . . . . . ",
". . . . . . . . . . . . . . . . ",
". . . . . . . . . . . . . . . . ",
". . . . . . . . . . . . . . . . ",
". . . . . . . . . . . . . . . . ",
". . . . . . . . . . . . . . . . ",
". . . . . . . . . . . . . . . . "};
