/* XPM */
xpm_string_t nine_xpm[] = {
"16 32 76 1",
" 	c #FFFFFF",
".	c #000000",
"+	c #030303",
"@	c #6B6B6B",
"#	c #B4B4B4",
"$	c #DFDFDF",
"%	c #F7F7F7",
"&	c #DEDEDE",
"*	c #9A9A9A",
"=	c #292929",
"-	c #272727",
";	c #D0D0D0",
">	c #FFFFFE",
",	c #FAFAFA",
"'	c #656565",
")	c #050505",
"!	c #CECECE",
"~	c #FBFBFB",
"{	c #D8D8D8",
"]	c #FEFEFE",
"^	c #474747",
"/	c #6E6E6E",
"(	c #E6E6E6",
"_	c #2A2A2A",
":	c #363636",
"<	c #E5E5E5",
"[	c #D9D9D9",
"}	c #010101",
"|	c #AAAAAA",
"1	c #707070",
"2	c #4E4E4E",
"3	c #3E3E3E",
"4	c #E3E3E3",
"5	c #727272",
"6	c #C8C8C8",
"7	c #7B7B7B",
"8	c #B1B1B1",
"9	c #929292",
"0	c #9C9C9C",
"a	c #EFEFEF",
"b	c #2E2E2E",
"c	c #7E7E7E",
"d	c #B3B3B3",
"e	c #2F2F2F",
"f	c #BCBCBC",
"g	c #AFAFAF",
"h	c #ECECEC",
"i	c #CACACA",
"j	c #767676",
"k	c #FDFDFD",
"l	c #E2E2E2",
"m	c #ADADAD",
"n	c #3B3B3B",
"o	c #E0E0E0",
"p	c #D6D6D6",
"q	c #838383",
"r	c #0F0F0F",
"s	c #A9A9A9",
"t	c #797979",
"u	c #313131",
"v	c #DCDCDC",
"w	c #5F5F5F",
"x	c #141414",
"y	c #0E0E0E",
"z	c #D5D5D5",
"A	c #B6B6B6",
"B	c #CFCFCF",
"C	c #808080",
"D	c #969696",
"E	c #040404",
"F	c #686868",
"G	c #BBBBBB",
"H	c #DBDBDB",
"I	c #F6F6F6",
"J	c #919191",
"K	c #303030",
"................",
"................",
"................",
"................",
"................",
"................",
"................",
"...+@#$%&*=.....",
"..-;>>>>>>,'....",
".)!>>~;{]>>]^...",
"./>>(_..:<>>[}..",
".|>>1....2>>>3..",
".{>>2.....4>>5..",
".6>>7.....8>>9..",
".0>>ab..}c>>>d..",
".e~>>,fgh>>>>i..",
"..jk>>>>>lm>>f..",
"...n8o%pqrs>>s..",
"..........;>>t..",
".........u>>>3..",
"........}8>>v}..",
"..wx...ym>>>w...",
"._>,zAB~>>>|....",
".C>>>>>>>kDE....",
".yFGHIazJK......",
"................",
"................",
"................",
"................",
"................",
"................",
"................"};
