/* XPM */
xpm_string_t two_point_xpm[] = {
"8 32 33 1",
" 	c #FFFFFF",
".	c #000000",
"+	c #151515",
"@	c #BBBBBB",
"#	c #F3F3F3",
"$	c #B0B0B0",
"%	c #0B0B0B",
"&	c #8B8B8B",
"*	c #FFFFFE",
"=	c #727272",
"-	c #A0A0A0",
";	c #878787",
">	c #3C3C3C",
",	c #F6F6F6",
"'	c #F0F0F0",
")	c #2A2A2A",
"!	c #1B1B1B",
"~	c #484848",
"{	c #161616",
"]	c #171717",
"^	c #434343",
"/	c #121212",
"(	c #383838",
"_	c #F4F4F4",
":	c #EDEDED",
"<	c #262626",
"[	c #9E9E9E",
"}	c #858585",
"|	c #8E8E8E",
"1	c #757575",
"2	c #BEBEBE",
"3	c #B3B3B3",
"4	c #0C0C0C",
"........",
"........",
"........",
"........",
"........",
"........",
"........",
"........",
"........",
"........",
"........",
"........",
".+@#$%..",
".&***=..",
".-***;..",
".>,*')..",
"..!~{...",
"........",
"........",
"........",
"..]^/...",
".(_*:<..",
".[***}..",
".|***1..",
".]2_34..",
"........",
"........",
"........",
"........",
"........",
"........",
"........"};
