/* XPM */
xpm_string_t mouse_xpm[] = {
"25 41 2 1",
" 	c #FFFFFF",
".	c #FFFFFE",
"                         ",
"                         ",
"                         ",
"                         ",
"                         ",
"   ..                    ",
"   ...                   ",
"   ....                  ",
"   .....                 ",
"   ......                ",
"   .......               ",
"   ........              ",
"   .........             ",
"   ..........            ",
"   ...........           ",
"   ............          ",
"   .............         ",
"   ..............        ",
"   ...............       ",
"   ................      ",
"   .................     ",
"   ..................    ",
"   ...................   ",
"   ...........           ",
"   ............          ",
"   ..... ......          ",
"   ....   ......         ",
"   ...    ......         ",
"   ..      .....         ",
"           ......        ",
"            .....        ",
"            ......       ",
"            ......       ",
"             ......      ",
"             ......      ",
"              ...        ",
"                         ",
"                         ",
"                         ",
"                         ",
"                         "};
